<svg width="260" height="61" viewBox="0 0 260 61" fill="none" xmlns="http://www.w3.org/2000/svg">
<path d="M116.6 33.08V37.12H123.52V37.72C123.52 41.24 120.84 42.96 117.28 42.96C112.36 42.96 109.84 39.8 109.84 33.8C109.84 28 112.64 24.72 117.12 24.72C120.12 24.72 122.24 26.04 123.08 28.88L128.2 26.68C126.12 22.24 122.8 20.2 117.08 20.2C109.24 20.2 104.12 25.36 104.12 33.84C104.12 42.44 109 47.4 116.28 47.4C120 47.4 122.68 46.08 124.16 43.64L124.4 47H128.28V33.08H116.6ZM133.786 47H139.266V36.64C139.266 33.04 141.706 31.32 144.146 31.32C145.386 31.32 146.066 31.44 146.626 31.64L147.266 27.04C146.786 26.76 145.986 26.6 145.106 26.6C141.986 26.6 139.946 28.16 138.906 30.92L138.546 27H133.786V47ZM168.791 35.92C168.791 30.56 165.311 26.6 159.271 26.6C153.311 26.6 149.151 30.44 149.151 37C149.151 43.56 153.231 47.4 159.551 47.4C163.631 47.4 167.111 45.6 168.391 42.44L164.031 40.76C163.231 42.36 161.871 43.32 159.511 43.32C156.751 43.32 154.951 41.84 154.511 38.72H168.631C168.711 38 168.791 37 168.791 35.92ZM159.231 30.64C161.711 30.64 163.231 32.16 163.511 34.92H154.551C155.071 32.08 156.711 30.64 159.231 30.64ZM192.297 20.6H169.057V25.04H177.937V47H183.457V25.04H192.297V20.6ZM210.822 35.92C210.822 30.56 207.342 26.6 201.302 26.6C195.342 26.6 191.182 30.44 191.182 37C191.182 43.56 195.262 47.4 201.582 47.4C205.662 47.4 209.142 45.6 210.422 42.44L206.062 40.76C205.262 42.36 203.902 43.32 201.542 43.32C198.782 43.32 196.982 41.84 196.542 38.72H210.662C210.742 38 210.822 37 210.822 35.92ZM201.262 30.64C203.742 30.64 205.262 32.16 205.542 34.92H196.582C197.102 32.08 198.742 30.64 201.262 30.64ZM224.546 26.6C218.506 26.6 214.346 30.44 214.346 37C214.346 43.56 218.466 47.4 224.706 47.4C229.666 47.4 232.906 44.92 233.786 41.36L228.826 39.76C228.386 42.04 227.026 43.32 224.666 43.32C221.666 43.32 219.826 41.32 219.826 37.04C219.826 32.84 221.546 30.68 224.626 30.68C226.786 30.68 228.106 31.92 228.586 34.32L233.706 32.48C232.746 29.2 229.906 26.6 224.546 26.6ZM238.044 47H243.524V36.44C243.524 32.44 245.804 30.92 248.124 30.92C250.204 30.92 251.684 32.04 251.684 35.48V47H257.164V33.88C257.164 29.04 254.124 26.6 249.964 26.6C247.124 26.6 244.804 27.84 243.524 30.4V18.24H238.044V47Z" fill="#5F727B"/>
<path fill-rule="evenodd" clip-rule="evenodd" d="M62.5143 4.9269C70.8629 14.3823 81.2 29.1629 73.6514 42.6934C67.9657 52.8903 55.7029 53.4725 48.5829 44.0783C46.0914 40.7876 39.0343 26.3379 34.6286 28.9546C30.2857 31.5283 25.1257 41.0205 15.7086 45.9903C12.4514 47.7122 3.2 50.8313 0 46.744C1.26286 45.8861 0.428571 46.3273 2.51429 45.7942C14.3143 42.7853 18.12 35.9037 25.1714 25.9886C34.4971 12.881 43.3029 18.2062 51.9371 28.7095C53.7371 30.9033 58.5886 39.801 61.5371 36.6819C66.2286 31.7183 54.7771 19.7381 52.12 17.1154C48.9829 14.033 48.7657 8.81202 51.6343 5.44778C54.5029 2.08354 59.3714 1.84455 62.5143 4.9269Z" fill="#5F727B"/>
<path fill-rule="evenodd" clip-rule="evenodd" d="M80.2971 43.006C83.7885 24.9959 79.5543 17.8324 68.3828 4.89628C68.3828 4.89628 64.2285 -0.0183324 65.88 5.14473e-05L66.04 0.0919706C70.1257 1.55655 70.16 0.919244 75.0857 4.33251C89.6 14.4069 93.2343 27.6922 91.9257 45.4449C91.2971 48.8888 88.1828 51.1316 84.9714 50.4576C81.76 49.7835 79.6685 46.4499 80.2971 43.006Z" fill="#94E0FF"/>
<path fill-rule="evenodd" clip-rule="evenodd" d="M38.9772 36.9149C40.8286 38.9004 40.3372 42.6446 37.88 45.2734C35.4229 47.9085 31.9314 48.4355 30.08 46.45C28.2286 44.4646 28.72 40.7204 31.1772 38.0854C33.6343 35.4503 37.1257 34.9295 38.9772 36.9149Z" fill="#94E0FF"/>
</svg>
